<svg id="svg" version="1.1" xmlns="http://www.w3.org/2000/svg" xmlns:xlink="http://www.w3.org/1999/xlink" width="400" height="200" viewBox="0, 0, 400,200"><g id="svgg"><path id="path0" d="M35.439 20.216 C 35.500 20.401,37.257 21.492,38.200 21.931 C 38.365 22.008,38.852 22.290,39.281 22.558 C 39.711 22.825,40.431 23.246,40.881 23.492 C 41.332 23.738,42.285 24.282,43.000 24.700 C 43.715 25.118,44.795 25.728,45.400 26.055 C 46.005 26.383,46.739 26.820,47.031 27.026 C 47.323 27.232,47.619 27.400,47.689 27.400 C 47.759 27.400,48.060 27.579,48.358 27.798 C 48.896 28.193,49.871 28.746,51.600 29.637 C 52.095 29.891,52.770 30.283,53.100 30.507 C 53.430 30.731,53.970 31.044,54.300 31.203 C 54.630 31.362,55.170 31.674,55.500 31.896 C 56.296 32.433,56.709 32.676,57.900 33.312 C 58.450 33.605,59.035 33.949,59.200 34.076 C 59.365 34.204,60.040 34.573,60.700 34.898 C 61.360 35.223,62.118 35.651,62.384 35.850 C 62.651 36.049,63.236 36.389,63.684 36.606 C 64.133 36.822,64.905 37.263,65.400 37.585 C 65.895 37.908,66.700 38.374,67.189 38.623 C 67.679 38.871,68.652 39.458,69.352 39.927 C 70.052 40.397,70.821 40.843,71.062 40.919 C 71.303 40.995,71.770 41.252,72.100 41.489 C 72.430 41.726,72.970 42.048,73.300 42.205 C 73.630 42.361,74.118 42.652,74.384 42.851 C 74.651 43.049,75.236 43.391,75.684 43.609 C 76.133 43.828,76.860 44.229,77.300 44.500 L 78.100 44.993 239.050 44.997 L 400.000 45.000 400.000 32.500 L 400.000 20.000 217.683 20.000 C 87.036 20.000,35.387 20.061,35.439 20.216 M113.202 65.150 C 113.203 65.233,113.630 65.534,114.152 65.820 C 114.673 66.106,115.640 66.635,116.300 66.996 C 116.960 67.356,117.739 67.820,118.031 68.026 C 118.323 68.232,118.619 68.400,118.689 68.400 C 118.759 68.400,119.060 68.579,119.358 68.798 C 119.896 69.193,120.871 69.746,122.600 70.637 C 123.095 70.891,123.784 71.302,124.131 71.550 C 124.478 71.797,124.842 72.000,124.941 72.000 C 125.039 72.000,125.228 72.108,125.361 72.241 C 125.592 72.472,126.764 73.156,128.900 74.306 C 129.450 74.602,130.035 74.951,130.200 75.081 C 130.365 75.211,130.905 75.519,131.400 75.766 C 131.895 76.012,132.930 76.612,133.700 77.099 C 134.470 77.585,135.172 77.987,135.260 77.992 C 135.347 77.996,135.889 78.293,136.464 78.650 C 137.039 79.008,137.867 79.476,138.304 79.690 C 138.742 79.905,139.235 80.187,139.400 80.318 C 139.565 80.448,140.150 80.796,140.700 81.091 C 142.074 81.828,143.403 82.582,144.000 82.965 C 144.275 83.141,144.770 83.431,145.100 83.610 C 145.430 83.789,146.285 84.278,147.000 84.697 C 147.715 85.116,148.795 85.726,149.400 86.052 C 150.005 86.377,150.680 86.800,150.900 86.990 C 151.120 87.181,151.750 87.589,152.300 87.897 C 154.419 89.083,155.124 89.461,155.800 89.775 C 156.444 90.074,166.241 90.096,278.250 90.050 L 400.000 89.999 400.000 77.500 L 400.000 65.000 256.600 65.000 C 177.730 65.000,113.201 65.067,113.202 65.150 M155.703 110.195 C 155.637 110.302,155.249 110.541,154.842 110.727 C 154.434 110.913,153.830 111.258,153.500 111.495 C 153.170 111.731,152.490 112.114,151.989 112.345 C 151.488 112.576,150.958 112.910,150.811 113.086 C 150.665 113.263,150.220 113.555,149.822 113.736 C 149.425 113.917,148.830 114.258,148.500 114.495 C 148.170 114.731,147.490 115.114,146.989 115.345 C 146.488 115.576,145.964 115.903,145.825 116.070 C 145.686 116.237,145.309 116.432,144.986 116.503 C 144.664 116.574,144.400 116.704,144.400 116.792 C 144.400 116.880,143.883 117.210,143.250 117.524 C 142.618 117.839,142.055 118.156,142.000 118.228 C 141.945 118.301,141.367 118.638,140.715 118.976 C 140.063 119.314,139.478 119.665,139.415 119.756 C 139.271 119.962,137.916 120.600,137.620 120.600 C 137.499 120.600,137.400 120.669,137.400 120.753 C 137.400 120.907,137.265 120.989,135.869 121.682 C 135.446 121.893,134.830 122.258,134.500 122.494 C 134.170 122.730,133.563 123.080,133.150 123.271 C 132.738 123.462,132.400 123.683,132.400 123.762 C 132.400 123.916,130.929 124.600,130.599 124.600 C 130.489 124.600,130.400 124.679,130.400 124.776 C 130.400 124.873,129.883 125.210,129.250 125.524 C 128.618 125.839,128.055 126.156,128.000 126.228 C 127.945 126.301,127.367 126.638,126.715 126.976 C 126.063 127.314,125.478 127.660,125.415 127.745 C 125.287 127.918,124.232 128.513,122.654 129.302 C 122.079 129.590,121.559 129.904,121.500 130.000 C 121.441 130.096,120.921 130.407,120.346 130.691 C 119.296 131.209,118.586 131.614,118.400 131.800 C 118.231 131.969,117.535 132.372,116.800 132.727 C 116.415 132.913,115.830 133.258,115.500 133.494 C 115.170 133.730,114.566 134.078,114.158 134.267 C 113.751 134.456,113.363 134.698,113.297 134.805 C 113.219 134.931,163.660 135.000,256.588 135.000 L 400.000 135.000 400.000 122.500 L 400.000 110.000 277.912 110.000 C 198.973 110.000,155.781 110.069,155.703 110.195 M77.436 155.406 C 77.071 155.602,76.621 155.888,76.436 156.040 C 76.251 156.192,75.695 156.519,75.200 156.766 C 74.254 157.238,73.568 157.632,73.400 157.800 C 73.268 157.932,71.951 158.653,70.670 159.294 C 70.104 159.578,69.531 159.943,69.396 160.105 C 69.261 160.267,69.032 160.400,68.885 160.400 C 68.739 160.400,68.548 160.517,68.460 160.661 C 68.291 160.937,66.991 161.600,66.620 161.600 C 66.499 161.600,66.400 161.682,66.400 161.782 C 66.400 161.882,65.995 162.160,65.501 162.399 C 65.007 162.639,64.555 162.911,64.497 163.005 C 64.439 163.098,63.921 163.407,63.346 163.691 C 62.251 164.231,61.569 164.624,61.400 164.810 C 61.239 164.988,59.860 165.600,59.620 165.600 C 59.499 165.600,59.400 165.679,59.400 165.776 C 59.400 165.873,58.883 166.210,58.250 166.524 C 57.617 166.839,57.055 167.155,57.000 167.226 C 56.945 167.298,56.540 167.551,56.100 167.788 C 55.120 168.318,54.532 168.668,54.400 168.800 C 54.267 168.933,52.946 169.656,51.654 170.302 C 51.079 170.590,50.559 170.904,50.500 171.000 C 50.441 171.096,49.921 171.407,49.346 171.691 C 48.296 172.209,47.586 172.614,47.400 172.800 C 47.231 172.969,46.535 173.372,45.800 173.727 C 45.415 173.913,44.830 174.258,44.500 174.494 C 44.170 174.730,43.540 175.087,43.100 175.286 C 42.660 175.486,42.120 175.808,41.900 176.002 C 41.680 176.196,41.275 176.422,41.000 176.504 C 40.725 176.586,40.455 176.709,40.400 176.777 C 40.263 176.945,39.638 177.320,38.800 177.737 C 38.415 177.928,37.994 178.188,37.863 178.315 C 37.733 178.441,37.173 178.760,36.619 179.022 C 36.065 179.285,35.567 179.613,35.512 179.750 C 35.432 179.950,71.952 180.000,217.706 180.000 L 400.000 180.000 400.000 167.500 L 400.000 155.000 239.050 155.025 C 84.971 155.048,78.072 155.064,77.436 155.406 " stroke="none" fill="#fbfcfc" fill-rule="evenodd"></path><path id="path1" d="M0.000 100.000 L 0.000 200.000 0.500 200.000 C 0.775 200.000,1.000 199.910,1.000 199.800 C 1.000 199.690,1.099 199.600,1.220 199.600 C 1.493 199.600,2.864 198.970,3.000 198.782 C 3.055 198.706,3.460 198.449,3.900 198.212 C 4.933 197.654,5.475 197.327,5.600 197.190 C 5.655 197.129,6.015 196.924,6.400 196.734 C 7.261 196.309,7.867 195.943,8.002 195.766 C 8.058 195.692,8.347 195.571,8.644 195.496 C 8.941 195.422,9.286 195.237,9.412 195.085 C 9.538 194.934,10.104 194.581,10.670 194.301 C 11.706 193.790,12.415 193.385,12.600 193.200 C 12.763 193.037,13.452 192.635,14.200 192.266 C 14.585 192.076,14.945 191.871,15.000 191.810 C 15.173 191.619,15.868 191.222,16.800 190.782 C 17.295 190.548,17.880 190.197,18.100 190.001 C 18.320 189.806,18.725 189.578,19.000 189.496 C 19.275 189.414,19.545 189.291,19.600 189.223 C 19.738 189.053,20.369 188.676,21.200 188.266 C 21.585 188.076,21.945 187.857,22.000 187.780 C 22.055 187.703,22.633 187.362,23.285 187.024 C 23.937 186.686,24.522 186.335,24.585 186.244 C 24.717 186.054,26.074 185.400,26.336 185.400 C 26.433 185.400,26.639 185.223,26.795 185.007 C 26.950 184.791,27.324 184.561,27.625 184.495 C 27.926 184.428,28.278 184.247,28.407 184.092 C 28.536 183.937,29.104 183.581,29.670 183.301 C 30.751 182.768,31.432 182.375,31.600 182.190 C 31.655 182.129,32.015 181.924,32.400 181.734 C 33.260 181.310,33.798 180.978,34.156 180.650 C 34.306 180.512,34.604 180.400,34.819 180.400 C 35.033 180.400,35.302 180.198,35.416 179.950 C 35.530 179.703,36.074 179.285,36.625 179.022 C 37.176 178.760,37.733 178.441,37.863 178.315 C 37.994 178.188,38.415 177.928,38.800 177.737 C 39.638 177.320,40.263 176.945,40.400 176.777 C 40.455 176.709,40.725 176.586,41.000 176.504 C 41.275 176.422,41.680 176.196,41.900 176.002 C 42.120 175.808,42.660 175.486,43.100 175.286 C 43.540 175.087,44.170 174.730,44.500 174.494 C 44.830 174.258,45.415 173.913,45.800 173.727 C 46.535 173.372,47.231 172.969,47.400 172.800 C 47.586 172.614,48.296 172.209,49.346 171.691 C 49.921 171.407,50.441 171.096,50.500 171.000 C 50.559 170.904,51.079 170.590,51.654 170.302 C 52.946 169.656,54.267 168.933,54.400 168.800 C 54.532 168.668,55.120 168.318,56.100 167.788 C 56.540 167.551,56.945 167.298,57.000 167.226 C 57.055 167.155,57.617 166.839,58.250 166.524 C 58.882 166.210,59.400 165.873,59.400 165.776 C 59.400 165.679,59.499 165.600,59.620 165.600 C 59.860 165.600,61.239 164.988,61.400 164.810 C 61.569 164.624,62.251 164.231,63.346 163.691 C 63.921 163.407,64.439 163.098,64.497 163.005 C 64.555 162.911,65.007 162.639,65.501 162.399 C 65.995 162.160,66.400 161.882,66.400 161.782 C 66.400 161.682,66.499 161.600,66.620 161.600 C 66.991 161.600,68.291 160.937,68.460 160.661 C 68.548 160.517,68.739 160.400,68.885 160.400 C 69.032 160.400,69.261 160.267,69.396 160.105 C 69.531 159.943,70.104 159.578,70.670 159.294 C 71.951 158.653,73.268 157.932,73.400 157.800 C 73.586 157.614,74.296 157.209,75.346 156.691 C 75.921 156.407,76.441 156.096,76.500 156.000 C 76.559 155.904,77.079 155.593,77.654 155.309 C 78.749 154.769,79.431 154.376,79.600 154.190 C 79.655 154.129,80.015 153.924,80.400 153.734 C 81.148 153.365,81.837 152.963,82.000 152.800 C 82.192 152.608,82.906 152.204,83.800 151.782 C 84.295 151.548,84.880 151.197,85.100 151.001 C 85.320 150.806,85.725 150.578,86.000 150.496 C 86.275 150.414,86.545 150.291,86.600 150.223 C 86.738 150.053,87.369 149.676,88.200 149.266 C 88.585 149.076,88.945 148.871,89.000 148.810 C 89.166 148.627,89.853 148.230,90.750 147.799 C 91.218 147.574,91.600 147.323,91.600 147.242 C 91.600 147.097,93.054 146.400,93.357 146.400 C 93.442 146.400,93.641 146.220,93.800 146.000 C 93.959 145.780,94.167 145.600,94.264 145.600 C 94.507 145.600,95.877 144.953,96.000 144.780 C 96.055 144.703,96.633 144.362,97.285 144.024 C 97.937 143.686,98.522 143.335,98.585 143.244 C 98.648 143.154,99.015 142.924,99.400 142.734 C 100.261 142.309,100.867 141.943,101.002 141.766 C 101.058 141.692,101.347 141.571,101.644 141.496 C 101.941 141.422,102.286 141.237,102.412 141.085 C 102.538 140.934,103.104 140.581,103.670 140.301 C 104.706 139.790,105.415 139.385,105.600 139.200 C 105.763 139.037,106.452 138.635,107.200 138.266 C 107.585 138.076,107.945 137.871,108.000 137.810 C 108.176 137.616,108.872 137.221,109.931 136.715 C 110.498 136.444,111.025 136.122,111.101 135.999 C 111.177 135.876,111.433 135.691,111.669 135.588 C 111.906 135.485,112.258 135.311,112.450 135.200 C 113.175 134.785,113.520 134.601,114.200 134.267 C 114.585 134.078,115.170 133.730,115.500 133.494 C 115.830 133.258,116.415 132.913,116.800 132.727 C 117.535 132.372,118.231 131.969,118.400 131.800 C 118.586 131.614,119.296 131.209,120.346 130.691 C 120.921 130.407,121.441 130.096,121.500 130.000 C 121.559 129.904,122.079 129.590,122.654 129.302 C 124.232 128.513,125.287 127.918,125.415 127.745 C 125.478 127.660,126.063 127.314,126.715 126.976 C 127.367 126.638,127.945 126.301,128.000 126.228 C 128.055 126.156,128.618 125.839,129.250 125.524 C 129.883 125.210,130.400 124.873,130.400 124.776 C 130.400 124.679,130.489 124.600,130.599 124.600 C 130.929 124.600,132.400 123.916,132.400 123.762 C 132.400 123.683,132.738 123.462,133.150 123.271 C 133.563 123.080,134.170 122.730,134.500 122.494 C 134.830 122.258,135.446 121.893,135.869 121.682 C 137.265 120.989,137.400 120.907,137.400 120.753 C 137.400 120.669,137.499 120.600,137.620 120.600 C 137.916 120.600,139.271 119.962,139.415 119.756 C 139.478 119.665,140.063 119.314,140.715 118.976 C 141.367 118.638,141.945 118.301,142.000 118.228 C 142.055 118.156,142.618 117.839,143.250 117.524 C 143.883 117.210,144.400 116.880,144.400 116.792 C 144.400 116.704,144.664 116.574,144.986 116.503 C 145.309 116.432,145.686 116.237,145.825 116.070 C 145.964 115.903,146.488 115.576,146.989 115.345 C 147.490 115.114,148.170 114.731,148.500 114.495 C 148.830 114.258,149.425 113.917,149.822 113.736 C 150.220 113.555,150.665 113.263,150.811 113.086 C 150.958 112.910,151.488 112.576,151.989 112.345 C 152.490 112.114,153.170 111.731,153.500 111.495 C 153.830 111.258,154.434 110.913,154.842 110.727 C 155.249 110.541,155.637 110.302,155.703 110.195 C 155.769 110.088,156.015 110.000,156.249 110.000 C 156.766 110.000,158.277 109.289,158.608 108.890 C 158.741 108.730,158.966 108.600,159.109 108.600 C 159.252 108.600,159.624 108.387,159.935 108.127 C 160.246 107.867,160.725 107.585,161.000 107.500 C 161.275 107.416,161.545 107.291,161.600 107.223 C 161.738 107.053,162.369 106.676,163.200 106.266 C 163.585 106.076,163.945 105.871,164.000 105.810 C 164.175 105.617,164.869 105.223,165.907 104.726 C 166.461 104.462,167.029 104.106,167.171 103.935 C 167.312 103.765,167.674 103.572,167.975 103.505 C 168.276 103.439,168.650 103.209,168.805 102.993 C 168.961 102.777,169.167 102.600,169.264 102.600 C 169.527 102.600,170.867 101.948,171.132 101.690 C 171.260 101.566,171.867 101.218,172.482 100.918 C 173.889 100.229,173.884 99.957,172.450 99.191 C 171.817 98.853,170.715 98.226,170.000 97.798 C 169.285 97.369,168.520 96.924,168.300 96.808 C 168.080 96.692,167.225 96.197,166.400 95.708 C 165.575 95.220,164.405 94.544,163.800 94.207 C 163.195 93.869,162.160 93.280,161.500 92.897 C 160.840 92.513,159.940 92.008,159.500 91.773 C 159.060 91.538,158.652 91.272,158.594 91.182 C 158.535 91.092,157.950 90.783,157.294 90.496 C 156.093 89.970,155.849 89.848,154.200 88.948 C 152.034 87.766,151.275 87.315,150.900 86.990 C 150.680 86.800,150.005 86.377,149.400 86.052 C 148.795 85.726,147.715 85.116,147.000 84.697 C 146.285 84.278,145.430 83.789,145.100 83.610 C 144.770 83.431,144.275 83.141,144.000 82.965 C 143.403 82.582,142.074 81.828,140.700 81.091 C 140.150 80.796,139.565 80.448,139.400 80.318 C 139.235 80.187,138.742 79.905,138.304 79.690 C 137.867 79.476,137.039 79.007,136.464 78.650 C 135.889 78.293,135.347 77.996,135.260 77.992 C 135.172 77.987,134.470 77.585,133.700 77.099 C 132.930 76.612,131.895 76.012,131.400 75.766 C 130.905 75.519,130.365 75.211,130.200 75.081 C 130.035 74.951,129.450 74.602,128.900 74.306 C 126.764 73.156,125.592 72.472,125.361 72.241 C 125.228 72.108,125.039 72.000,124.941 72.000 C 124.842 72.000,124.478 71.797,124.131 71.550 C 123.784 71.302,123.095 70.891,122.600 70.637 C 120.871 69.746,119.896 69.193,119.358 68.798 C 119.060 68.579,118.769 68.400,118.712 68.400 C 118.655 68.400,118.115 68.085,117.513 67.700 C 116.912 67.315,116.346 67.000,116.256 67.000 C 116.166 67.000,115.779 66.790,115.396 66.534 C 115.013 66.278,113.980 65.680,113.100 65.207 C 112.220 64.733,111.187 64.133,110.804 63.873 C 110.421 63.613,110.047 63.400,109.974 63.400 C 109.900 63.400,109.269 63.039,108.570 62.599 C 107.872 62.158,107.165 61.736,107.000 61.661 C 106.835 61.585,106.160 61.205,105.500 60.816 C 104.059 59.967,103.068 59.401,101.600 58.589 C 100.359 57.902,99.048 57.121,98.600 56.802 C 98.297 56.586,97.702 56.258,95.375 55.024 C 94.674 54.653,94.055 54.282,94.000 54.200 C 93.945 54.119,93.411 53.806,92.814 53.505 C 92.217 53.203,91.603 52.832,91.450 52.678 C 91.297 52.525,91.099 52.400,91.010 52.400 C 90.921 52.400,90.320 52.090,89.674 51.711 C 89.028 51.332,88.095 50.787,87.600 50.500 C 87.105 50.213,86.160 49.659,85.500 49.269 C 84.840 48.879,83.715 48.242,83.000 47.852 C 82.285 47.462,81.565 47.031,81.400 46.895 C 81.235 46.758,80.650 46.405,80.100 46.111 C 79.550 45.817,78.515 45.224,77.800 44.793 C 77.085 44.363,76.133 43.831,75.684 43.611 C 75.236 43.391,74.651 43.049,74.384 42.851 C 74.118 42.652,73.630 42.361,73.300 42.205 C 72.970 42.048,72.430 41.726,72.100 41.489 C 71.770 41.252,71.303 40.995,71.062 40.919 C 70.821 40.843,70.052 40.397,69.352 39.927 C 68.652 39.458,67.679 38.871,67.189 38.623 C 66.700 38.374,65.895 37.908,65.400 37.585 C 64.905 37.263,64.133 36.822,63.684 36.606 C 63.236 36.389,62.651 36.049,62.384 35.850 C 62.118 35.651,61.360 35.223,60.700 34.898 C 60.040 34.573,59.365 34.204,59.200 34.076 C 59.035 33.949,58.450 33.605,57.900 33.312 C 56.709 32.676,56.296 32.433,55.500 31.896 C 55.170 31.674,54.630 31.362,54.300 31.203 C 53.970 31.044,53.430 30.731,53.100 30.507 C 52.770 30.283,52.095 29.891,51.600 29.637 C 49.871 28.746,48.896 28.193,48.358 27.798 C 48.060 27.579,47.759 27.400,47.689 27.400 C 47.619 27.400,47.323 27.232,47.031 27.026 C 46.739 26.820,46.005 26.383,45.400 26.055 C 44.795 25.728,43.715 25.118,43.000 24.700 C 42.285 24.282,41.332 23.738,40.881 23.492 C 40.126 23.079,39.057 22.453,38.092 21.858 C 37.877 21.725,37.219 21.365,36.631 21.058 C 36.043 20.751,35.477 20.343,35.374 20.150 C 35.271 19.957,35.048 19.800,34.880 19.800 C 34.711 19.800,34.287 19.583,33.937 19.319 C 33.245 18.795,31.785 17.946,29.900 16.970 C 29.240 16.628,28.655 16.282,28.600 16.201 C 28.545 16.120,28.140 15.858,27.700 15.619 C 27.260 15.380,26.360 14.874,25.700 14.495 C 25.040 14.117,24.005 13.534,23.400 13.202 C 22.795 12.869,21.748 12.249,21.072 11.824 C 20.397 11.399,19.587 10.915,19.272 10.749 C 18.078 10.116,15.837 8.827,13.330 7.329 C 12.436 6.795,11.254 6.131,10.703 5.853 C 10.151 5.575,9.655 5.286,9.600 5.210 C 9.545 5.134,9.005 4.802,8.400 4.471 C 7.104 3.763,5.949 3.103,4.300 2.128 C 3.640 1.737,2.650 1.177,2.100 0.884 C 1.550 0.590,1.070 0.270,1.033 0.174 C 0.997 0.079,0.749 0.000,0.483 0.000 L 0.000 0.000 0.000 100.000 " stroke="none" fill="#04fbfb" fill-rule="evenodd"></path><path id="path2" d="M126.350 19.950 C 176.537 19.978,258.662 19.978,308.850 19.950 C 359.037 19.922,317.975 19.900,217.600 19.900 C 117.225 19.900,76.162 19.922,126.350 19.950 M78.600 45.156 C 78.765 45.235,151.170 45.255,239.500 45.200 L 400.100 45.099 239.200 45.056 C 150.705 45.032,78.435 45.077,78.600 45.156 M113.131 64.950 C 113.047 65.085,208.059 65.085,348.100 64.950 C 376.700 64.922,335.553 64.877,256.662 64.850 C 177.771 64.822,113.182 64.867,113.131 64.950 M157.079 90.300 C 157.288 90.458,157.558 90.523,157.679 90.444 C 157.801 90.365,212.395 90.255,279.000 90.200 L 400.100 90.099 278.400 90.056 C 172.590 90.018,156.750 90.050,157.079 90.300 M157.069 109.850 C 157.018 109.933,211.679 109.978,278.538 109.951 C 345.397 109.924,390.560 109.879,378.900 109.851 C 323.379 109.718,157.151 109.717,157.069 109.850 M184.850 135.150 C 224.313 135.178,288.888 135.178,328.350 135.150 C 367.813 135.122,335.525 135.099,256.600 135.099 C 177.675 135.099,145.388 135.122,184.850 135.150 M78.669 154.850 C 78.618 154.933,150.919 154.978,239.338 154.951 C 327.757 154.923,383.090 154.878,362.300 154.851 C 262.292 154.717,78.751 154.717,78.669 154.850 M126.567 180.150 C 176.763 180.178,258.843 180.178,308.967 180.150 C 359.090 180.122,318.020 180.100,217.700 180.100 C 117.380 180.100,76.370 180.122,126.567 180.150 " stroke="none" fill="#6c84bc" fill-rule="evenodd"></path><path id="path3" d="M1.002 0.150 C 1.004 0.233,1.386 0.480,1.852 0.700 C 2.319 0.920,3.240 1.437,3.900 1.848 C 4.560 2.260,5.595 2.867,6.200 3.198 C 6.805 3.528,7.840 4.116,8.500 4.504 C 9.160 4.892,10.195 5.480,10.800 5.811 C 11.405 6.142,12.305 6.678,12.800 7.002 C 13.295 7.327,14.150 7.825,14.700 8.110 C 15.250 8.395,16.285 8.976,17.000 9.402 C 17.715 9.828,18.795 10.457,19.400 10.799 C 20.005 11.142,20.950 11.686,21.500 12.009 C 22.050 12.332,22.950 12.834,23.500 13.124 C 24.050 13.415,24.545 13.719,24.600 13.800 C 24.655 13.881,25.195 14.196,25.800 14.500 C 26.405 14.804,26.945 15.115,27.000 15.191 C 27.055 15.267,27.235 15.388,27.400 15.461 C 27.565 15.533,28.465 16.039,29.400 16.586 C 30.335 17.133,31.550 17.821,32.100 18.117 C 32.650 18.412,33.476 18.912,33.936 19.227 L 34.772 19.800 217.436 19.750 L 400.100 19.700 217.400 19.600 L 34.700 19.500 33.937 18.917 C 33.518 18.596,32.753 18.117,32.237 17.853 C 30.628 17.029,29.519 16.410,29.000 16.045 C 28.725 15.852,28.230 15.561,27.900 15.397 C 27.570 15.234,27.253 15.039,27.196 14.963 C 27.139 14.887,26.528 14.527,25.839 14.163 C 23.083 12.704,22.601 12.430,22.084 12.023 C 21.788 11.790,21.441 11.600,21.313 11.600 C 21.185 11.600,20.972 11.492,20.839 11.359 C 20.608 11.128,19.436 10.444,17.300 9.294 C 16.750 8.998,16.165 8.644,16.000 8.508 C 15.835 8.373,15.295 8.061,14.800 7.816 C 14.305 7.572,13.495 7.108,13.000 6.785 C 12.505 6.463,11.733 6.022,11.284 5.806 C 10.836 5.589,10.251 5.249,9.984 5.051 C 9.718 4.852,9.230 4.560,8.900 4.402 C 8.570 4.244,8.030 3.931,7.700 3.707 C 7.370 3.483,6.695 3.091,6.200 2.837 C 4.542 1.983,3.553 1.420,3.225 1.142 C 2.547 0.567,0.998 -0.124,1.002 0.150 M79.247 45.366 C 79.080 45.473,79.651 45.887,80.947 46.599 C 82.021 47.189,82.945 47.724,83.000 47.787 C 83.055 47.851,83.595 48.167,84.200 48.490 C 84.805 48.812,85.419 49.194,85.564 49.338 C 85.710 49.482,85.916 49.600,86.024 49.600 C 86.131 49.600,86.687 49.895,87.260 50.256 C 87.832 50.616,88.683 51.080,89.150 51.286 C 89.618 51.492,90.000 51.719,90.000 51.791 C 90.000 51.862,90.383 52.126,90.850 52.377 C 92.630 53.332,93.370 53.747,94.320 54.320 C 94.859 54.645,95.525 55.025,95.800 55.164 C 96.075 55.303,96.859 55.751,97.542 56.159 C 99.107 57.093,102.105 58.832,103.800 59.789 C 104.515 60.193,105.491 60.772,105.969 61.076 C 106.447 61.380,106.882 61.585,106.936 61.530 C 106.990 61.476,106.779 61.274,106.467 61.081 C 106.155 60.888,105.502 60.476,105.016 60.165 C 104.529 59.854,104.043 59.600,103.935 59.600 C 103.826 59.600,103.459 59.396,103.119 59.146 C 102.778 58.896,102.230 58.562,101.900 58.403 C 101.570 58.244,101.038 57.937,100.717 57.720 C 100.032 57.257,98.911 56.631,97.454 55.900 C 96.878 55.611,96.354 55.287,96.288 55.181 C 96.222 55.074,95.748 54.793,95.234 54.555 C 94.720 54.317,94.253 54.055,94.196 53.974 C 94.139 53.892,93.554 53.546,92.896 53.205 C 92.238 52.864,91.295 52.323,90.800 52.004 C 90.305 51.685,89.495 51.220,89.000 50.970 C 88.505 50.721,87.965 50.411,87.800 50.281 C 87.635 50.151,87.050 49.804,86.500 49.509 C 85.950 49.215,85.140 48.753,84.700 48.483 C 84.260 48.214,83.720 47.905,83.500 47.797 C 83.039 47.571,82.548 47.270,81.700 46.693 C 81.370 46.468,80.698 46.108,80.206 45.892 C 79.318 45.502,80.171 45.499,239.706 45.400 L 400.100 45.300 239.800 45.253 C 151.635 45.227,79.386 45.278,79.247 45.366 M107.200 61.696 C 107.200 61.749,107.583 61.986,108.050 62.223 C 108.517 62.460,108.945 62.720,109.000 62.801 C 109.055 62.881,109.595 63.196,110.200 63.500 C 110.805 63.804,111.345 64.110,111.400 64.181 C 111.984 64.931,105.889 64.905,256.300 64.799 L 400.100 64.699 256.333 64.650 C 177.261 64.624,112.461 64.534,112.333 64.451 C 111.923 64.186,111.447 63.914,110.360 63.328 C 109.777 63.013,109.165 62.652,109.000 62.525 C 108.267 61.964,107.200 61.472,107.200 61.696 M218.666 90.350 C 251.978 90.378,306.428 90.378,339.666 90.350 C 372.905 90.322,345.650 90.299,279.100 90.299 C 212.550 90.299,185.355 90.322,218.666 90.350 M157.600 90.477 C 157.600 90.534,158.189 90.922,158.908 91.340 C 159.628 91.758,160.775 92.433,161.458 92.840 C 162.141 93.248,163.150 93.817,163.700 94.104 C 164.250 94.392,165.285 94.976,166.000 95.402 C 166.715 95.827,167.660 96.373,168.100 96.615 C 168.540 96.856,168.945 97.115,169.000 97.191 C 169.055 97.266,169.505 97.528,170.000 97.773 C 173.639 99.572,174.145 100.142,172.693 100.803 C 172.180 101.037,171.811 101.277,171.871 101.338 C 172.029 101.496,173.435 100.735,173.668 100.365 C 173.998 99.842,173.655 99.403,172.506 98.877 C 171.902 98.601,171.354 98.287,171.288 98.181 C 171.222 98.074,170.748 97.793,170.234 97.555 C 169.720 97.317,169.255 97.063,169.200 96.991 C 169.091 96.848,167.880 96.139,166.300 95.291 C 165.750 94.996,165.165 94.648,165.000 94.518 C 164.835 94.387,164.340 94.105,163.900 93.892 C 163.460 93.678,162.965 93.400,162.800 93.274 C 162.635 93.148,162.050 92.805,161.500 92.512 C 160.248 91.844,159.852 91.608,159.100 91.079 C 158.485 90.647,157.600 90.291,157.600 90.477 M171.200 101.700 C 171.063 101.865,170.832 102.000,170.687 102.000 C 170.542 102.000,170.368 102.090,170.300 102.200 C 170.066 102.579,170.579 102.399,171.139 101.906 C 171.447 101.635,171.644 101.410,171.574 101.406 C 171.505 101.403,171.337 101.535,171.200 101.700 M169.061 102.901 C 168.727 103.200,168.641 103.352,168.850 103.280 C 169.043 103.212,169.200 103.077,169.200 102.979 C 169.200 102.880,169.330 102.800,169.488 102.800 C 169.647 102.800,169.832 102.710,169.900 102.600 C 170.136 102.217,169.619 102.403,169.061 102.901 M167.809 103.546 C 167.388 103.712,166.686 104.400,166.938 104.400 C 167.055 104.400,167.263 104.265,167.400 104.100 C 167.537 103.935,167.768 103.800,167.913 103.800 C 168.058 103.800,168.232 103.710,168.300 103.600 C 168.434 103.384,168.268 103.365,167.809 103.546 M165.800 104.746 C 165.415 104.931,165.055 105.145,165.000 105.220 C 164.945 105.295,164.514 105.557,164.041 105.803 C 163.569 106.048,163.221 106.287,163.267 106.334 C 163.379 106.446,166.071 104.982,166.490 104.582 C 166.761 104.323,166.599 104.362,165.800 104.746 M162.472 106.700 C 162.409 106.865,162.237 107.000,162.090 107.000 C 161.944 107.000,161.773 107.082,161.712 107.181 C 161.650 107.281,161.774 107.317,161.987 107.261 C 162.453 107.139,163.172 106.400,162.825 106.400 C 162.694 106.400,162.536 106.535,162.472 106.700 M160.809 107.546 C 160.388 107.712,159.686 108.400,159.938 108.400 C 160.055 108.400,160.263 108.265,160.400 108.100 C 160.537 107.935,160.768 107.800,160.913 107.800 C 161.058 107.800,161.232 107.710,161.300 107.600 C 161.434 107.384,161.268 107.365,160.809 107.546 M159.093 108.590 C 158.650 108.770,158.043 109.404,158.326 109.393 C 158.421 109.389,158.770 109.164,159.100 108.894 C 159.739 108.370,159.738 108.329,159.093 108.590 M218.666 109.750 C 251.978 109.778,306.428 109.778,339.666 109.750 C 372.905 109.722,345.650 109.699,279.100 109.699 C 212.550 109.699,185.355 109.722,218.666 109.750 M112.159 135.350 C 112.044 135.488,111.868 135.600,111.767 135.600 C 111.666 135.600,111.390 135.780,111.154 136.000 C 110.918 136.220,110.821 136.400,110.938 136.400 C 111.055 136.400,111.263 136.265,111.400 136.100 C 111.537 135.935,111.755 135.800,111.884 135.800 C 112.014 135.800,112.210 135.710,112.321 135.599 C 112.455 135.465,160.256 135.382,256.311 135.350 C 335.395 135.323,387.140 135.279,371.300 135.251 C 262.606 135.059,112.352 135.116,112.159 135.350 M109.800 136.746 C 109.415 136.931,109.055 137.145,109.000 137.220 C 108.945 137.295,108.514 137.557,108.041 137.803 C 107.569 138.048,107.221 138.287,107.267 138.334 C 107.379 138.446,110.071 136.982,110.490 136.582 C 110.761 136.323,110.599 136.362,109.800 136.746 M106.472 138.700 C 106.409 138.865,106.237 139.000,106.090 139.000 C 105.944 139.000,105.773 139.082,105.712 139.181 C 105.650 139.281,105.774 139.317,105.987 139.261 C 106.453 139.139,107.172 138.400,106.825 138.400 C 106.694 138.400,106.536 138.535,106.472 138.700 M104.800 139.700 C 104.663 139.865,104.432 140.000,104.287 140.000 C 104.142 140.000,103.962 140.100,103.887 140.221 C 103.670 140.572,104.638 140.218,105.094 139.779 C 105.311 139.571,105.390 139.400,105.269 139.400 C 105.148 139.400,104.937 139.535,104.800 139.700 M103.093 140.590 C 102.650 140.770,102.043 141.404,102.326 141.393 C 102.421 141.389,102.770 141.164,103.100 140.894 C 103.739 140.370,103.738 140.329,103.093 140.590 M100.900 141.907 C 100.460 142.177,99.965 142.459,99.800 142.534 C 99.635 142.609,99.455 142.722,99.400 142.785 C 99.239 142.970,98.562 143.363,97.650 143.801 C 97.183 144.026,96.800 144.259,96.800 144.318 C 96.800 144.515,97.688 144.162,98.300 143.723 C 98.630 143.486,99.170 143.161,99.500 143.000 C 99.830 142.839,100.378 142.504,100.719 142.254 C 101.059 142.004,101.436 141.800,101.557 141.800 C 101.678 141.800,101.832 141.710,101.900 141.600 C 102.099 141.277,101.756 141.383,100.900 141.907 M96.200 144.700 C 96.063 144.865,95.832 145.000,95.687 145.000 C 95.542 145.000,95.368 145.090,95.300 145.200 C 95.066 145.579,95.579 145.399,96.139 144.906 C 96.447 144.635,96.644 144.410,96.574 144.406 C 96.505 144.403,96.337 144.535,96.200 144.700 M94.061 145.901 C 93.727 146.200,93.641 146.352,93.850 146.280 C 94.043 146.212,94.200 146.077,94.200 145.979 C 94.200 145.880,94.330 145.800,94.488 145.800 C 94.647 145.800,94.832 145.710,94.900 145.600 C 95.136 145.217,94.619 145.403,94.061 145.901 M92.800 146.546 C 92.635 146.609,92.455 146.714,92.400 146.780 C 92.260 146.949,91.621 147.329,90.800 147.734 C 90.415 147.924,90.055 148.142,90.000 148.218 C 89.945 148.294,89.514 148.557,89.041 148.803 C 88.569 149.048,88.221 149.287,88.267 149.334 C 88.384 149.451,90.053 148.546,91.300 147.689 C 91.630 147.462,92.238 147.120,92.650 146.929 C 93.577 146.499,93.692 146.206,92.800 146.546 M87.472 149.700 C 87.409 149.865,87.237 150.000,87.090 150.000 C 86.944 150.000,86.773 150.082,86.712 150.181 C 86.650 150.281,86.774 150.317,86.987 150.261 C 87.453 150.139,88.172 149.400,87.825 149.400 C 87.694 149.400,87.536 149.535,87.472 149.700 M85.809 150.546 C 85.388 150.712,84.686 151.400,84.938 151.400 C 85.055 151.400,85.263 151.265,85.400 151.100 C 85.537 150.935,85.768 150.800,85.913 150.800 C 86.058 150.800,86.232 150.710,86.300 150.600 C 86.434 150.384,86.268 150.365,85.809 150.546 M83.800 151.746 C 83.415 151.931,83.055 152.141,83.000 152.212 C 82.858 152.395,81.168 153.382,80.750 153.526 C 80.558 153.592,80.400 153.726,80.400 153.823 C 80.400 153.920,80.270 154.000,80.112 154.000 C 79.953 154.000,79.759 154.104,79.681 154.231 C 79.602 154.358,79.620 154.421,79.719 154.371 C 79.819 154.322,80.170 154.152,80.500 153.995 C 80.830 153.837,81.370 153.526,81.700 153.304 C 82.553 152.728,83.008 152.457,83.753 152.081 C 84.865 151.520,84.908 151.213,83.800 151.746 M79.269 154.647 C 79.396 154.728,151.635 154.773,239.800 154.747 C 327.965 154.722,379.490 154.678,354.300 154.650 C 233.379 154.517,79.062 154.515,79.269 154.647 M126.350 180.350 C 176.537 180.378,258.662 180.378,308.850 180.350 C 359.037 180.322,317.975 180.300,217.600 180.300 C 117.225 180.300,76.162 180.322,126.350 180.350 M34.257 180.623 C 33.984 180.896,33.223 181.349,32.750 181.520 C 32.557 181.590,32.400 181.726,32.400 181.823 C 32.400 181.920,32.270 182.000,32.112 182.000 C 31.953 182.000,31.759 182.104,31.681 182.231 C 31.602 182.358,31.620 182.418,31.719 182.365 C 31.819 182.311,32.215 182.122,32.600 181.945 C 33.256 181.642,34.831 180.426,34.590 180.408 C 34.530 180.404,34.380 180.500,34.257 180.623 M30.800 182.700 C 30.663 182.865,30.432 183.000,30.287 183.000 C 30.142 183.000,29.962 183.100,29.887 183.221 C 29.670 183.572,30.638 183.218,31.094 182.779 C 31.311 182.571,31.390 182.400,31.269 182.400 C 31.148 182.400,30.937 182.535,30.800 182.700 M29.093 183.590 C 28.650 183.770,28.043 184.404,28.326 184.393 C 28.421 184.389,28.770 184.164,29.100 183.894 C 29.739 183.370,29.738 183.329,29.093 183.590 M27.061 184.901 C 26.727 185.200,26.641 185.352,26.850 185.280 C 27.043 185.212,27.200 185.077,27.200 184.979 C 27.200 184.880,27.330 184.800,27.488 184.800 C 27.647 184.800,27.832 184.710,27.900 184.600 C 28.136 184.217,27.619 184.403,27.061 184.901 M25.800 185.546 C 25.635 185.609,25.455 185.714,25.400 185.780 C 25.244 185.967,24.580 186.354,23.650 186.801 C 23.183 187.026,22.800 187.259,22.800 187.318 C 22.800 187.518,23.693 187.159,24.300 186.715 C 24.630 186.474,25.238 186.120,25.650 185.929 C 26.577 185.499,26.692 185.206,25.800 185.546 M22.200 187.700 C 22.063 187.865,21.832 188.000,21.687 188.000 C 21.542 188.000,21.368 188.090,21.300 188.200 C 21.066 188.579,21.579 188.399,22.139 187.906 C 22.447 187.635,22.644 187.410,22.574 187.406 C 22.505 187.403,22.337 187.535,22.200 187.700 M20.472 188.700 C 20.409 188.865,20.237 189.000,20.090 189.000 C 19.944 189.000,19.773 189.082,19.712 189.181 C 19.650 189.281,19.774 189.317,19.987 189.261 C 20.453 189.139,21.172 188.400,20.825 188.400 C 20.694 188.400,20.536 188.535,20.472 188.700 M18.809 189.546 C 18.388 189.712,17.686 190.400,17.938 190.400 C 18.055 190.400,18.263 190.265,18.400 190.100 C 18.537 189.935,18.768 189.800,18.913 189.800 C 19.058 189.800,19.232 189.710,19.300 189.600 C 19.434 189.384,19.268 189.365,18.809 189.546 M16.800 190.746 C 16.415 190.931,16.055 191.145,16.000 191.220 C 15.945 191.295,15.514 191.557,15.041 191.803 C 14.569 192.048,14.221 192.287,14.267 192.334 C 14.379 192.446,17.071 190.982,17.490 190.582 C 17.761 190.323,17.599 190.362,16.800 190.746 M13.472 192.700 C 13.409 192.865,13.237 193.000,13.090 193.000 C 12.944 193.000,12.773 193.082,12.712 193.181 C 12.650 193.281,12.774 193.317,12.987 193.261 C 13.453 193.139,14.172 192.400,13.825 192.400 C 13.694 192.400,13.536 192.535,13.472 192.700 M11.800 193.700 C 11.663 193.865,11.432 194.000,11.287 194.000 C 11.142 194.000,10.962 194.100,10.887 194.221 C 10.670 194.572,11.638 194.218,12.094 193.779 C 12.311 193.571,12.390 193.400,12.269 193.400 C 12.148 193.400,11.937 193.535,11.800 193.700 M10.093 194.590 C 9.650 194.770,9.043 195.404,9.326 195.393 C 9.421 195.389,9.770 195.164,10.100 194.894 C 10.739 194.370,10.738 194.329,10.093 194.590 M7.900 195.912 C 7.460 196.184,6.942 196.460,6.750 196.526 C 6.558 196.593,6.400 196.726,6.400 196.823 C 6.400 196.920,6.270 197.000,6.112 197.000 C 5.953 197.000,5.759 197.104,5.681 197.231 C 5.602 197.358,5.620 197.421,5.719 197.371 C 5.819 197.322,6.170 197.152,6.500 196.995 C 6.830 196.837,7.378 196.504,7.719 196.254 C 8.059 196.004,8.436 195.800,8.557 195.800 C 8.678 195.800,8.832 195.710,8.900 195.600 C 9.100 195.276,8.754 195.384,7.900 195.912 M4.800 197.700 C 4.663 197.865,4.432 198.000,4.287 198.000 C 4.142 198.000,3.962 198.100,3.887 198.221 C 3.670 198.572,4.638 198.218,5.094 197.779 C 5.311 197.571,5.390 197.400,5.269 197.400 C 5.148 197.400,4.937 197.535,4.800 197.700 M3.200 198.700 C 3.063 198.865,2.832 199.000,2.687 199.000 C 2.542 199.000,2.368 199.090,2.300 199.200 C 2.066 199.579,2.579 199.399,3.139 198.906 C 3.447 198.635,3.644 198.410,3.574 198.406 C 3.505 198.403,3.337 198.535,3.200 198.700 M1.288 199.694 C 1.075 199.855,0.995 199.990,1.112 199.994 C 1.228 199.997,1.498 199.868,1.712 199.706 C 1.925 199.545,2.005 199.410,1.888 199.406 C 1.772 199.403,1.502 199.532,1.288 199.694 " stroke="none" fill="#044ca4" fill-rule="evenodd"></path><path id="path4" d="M1.712 0.294 C 1.925 0.455,2.200 0.590,2.323 0.594 C 2.446 0.597,2.793 0.794,3.095 1.032 C 3.643 1.463,4.505 1.964,6.200 2.837 C 6.695 3.091,7.370 3.483,7.700 3.707 C 8.030 3.931,8.570 4.244,8.900 4.402 C 9.230 4.560,9.718 4.852,9.984 5.051 C 10.251 5.249,10.836 5.589,11.284 5.806 C 11.733 6.022,12.505 6.463,13.000 6.785 C 13.495 7.108,14.305 7.572,14.800 7.816 C 15.295 8.061,15.835 8.373,16.000 8.508 C 16.165 8.644,16.750 8.998,17.300 9.294 C 19.436 10.444,20.608 11.128,20.839 11.359 C 20.972 11.492,21.185 11.600,21.313 11.600 C 21.441 11.600,21.788 11.790,22.084 12.023 C 22.601 12.430,23.083 12.704,25.839 14.163 C 26.528 14.527,27.139 14.887,27.196 14.963 C 27.253 15.039,27.570 15.234,27.900 15.397 C 28.230 15.561,28.725 15.852,29.000 16.045 C 29.507 16.401,30.569 16.993,32.200 17.828 C 32.695 18.081,33.475 18.583,33.934 18.944 L 34.767 19.600 217.384 19.600 L 400.000 19.600 400.000 9.800 L 400.000 0.000 200.662 -0.000 C 25.348 -0.000,1.370 0.035,1.712 0.294 M80.200 45.866 C 80.696 46.105,81.371 46.480,81.701 46.700 C 82.627 47.317,83.065 47.584,83.500 47.797 C 83.720 47.905,84.260 48.214,84.700 48.483 C 85.140 48.753,85.950 49.215,86.500 49.509 C 87.050 49.804,87.635 50.151,87.800 50.281 C 87.965 50.411,88.505 50.721,89.000 50.970 C 89.495 51.220,90.305 51.685,90.800 52.004 C 91.295 52.323,92.238 52.864,92.896 53.205 C 93.554 53.546,94.139 53.892,94.196 53.974 C 94.253 54.055,94.720 54.317,95.234 54.555 C 95.748 54.793,96.222 55.074,96.288 55.181 C 96.354 55.287,96.878 55.611,97.454 55.900 C 98.911 56.631,100.032 57.257,100.717 57.720 C 101.038 57.937,101.570 58.244,101.900 58.402 C 102.230 58.560,102.718 58.852,102.984 59.051 C 103.251 59.249,103.836 59.589,104.284 59.806 C 104.733 60.022,105.505 60.463,106.000 60.785 C 106.495 61.108,107.305 61.572,107.800 61.816 C 108.295 62.061,108.835 62.373,109.000 62.508 C 109.165 62.644,109.777 63.013,110.360 63.328 C 111.785 64.096,112.109 64.282,112.429 64.508 C 112.602 64.630,164.711 64.682,256.350 64.650 L 400.000 64.599 400.000 55.000 L 400.000 45.400 239.650 45.416 L 79.300 45.432 80.200 45.866 M158.200 90.547 C 158.365 90.610,158.770 90.851,159.100 91.082 C 159.857 91.611,160.255 91.848,161.500 92.512 C 162.050 92.805,162.635 93.148,162.800 93.274 C 162.965 93.400,163.460 93.678,163.900 93.892 C 164.340 94.105,164.835 94.387,165.000 94.518 C 165.165 94.648,165.750 94.996,166.300 95.291 C 167.876 96.136,169.091 96.848,169.200 96.990 C 169.255 97.062,169.660 97.285,170.100 97.486 C 170.540 97.687,171.043 97.975,171.218 98.127 C 171.392 98.279,172.022 98.650,172.618 98.952 C 174.229 99.768,174.056 100.743,172.200 101.297 C 171.925 101.379,171.520 101.604,171.300 101.798 C 171.080 101.992,170.540 102.314,170.100 102.515 C 169.660 102.715,169.255 102.942,169.200 103.018 C 169.145 103.094,168.740 103.352,168.300 103.591 C 167.502 104.025,166.637 104.529,165.500 105.221 C 165.170 105.422,164.429 105.820,163.854 106.106 C 163.279 106.392,162.759 106.704,162.700 106.800 C 162.641 106.896,162.121 107.207,161.546 107.491 C 160.396 108.059,159.996 108.292,159.100 108.918 C 158.770 109.149,158.365 109.390,158.200 109.453 C 158.035 109.517,212.373 109.576,278.950 109.584 L 400.000 109.600 400.000 100.000 L 400.000 90.400 278.950 90.416 C 212.373 90.424,158.035 90.483,158.200 90.547 M112.503 135.395 C 112.425 135.521,112.167 135.710,111.931 135.815 C 111.694 135.919,111.230 136.171,110.900 136.375 C 109.422 137.285,108.833 137.620,107.870 138.098 C 107.304 138.380,106.731 138.743,106.596 138.905 C 106.461 139.067,106.234 139.200,106.091 139.200 C 105.948 139.200,105.576 139.413,105.265 139.673 C 104.954 139.933,104.475 140.213,104.200 140.296 C 103.925 140.379,103.430 140.640,103.100 140.877 C 102.770 141.114,102.230 141.437,101.900 141.594 C 101.570 141.751,101.030 142.066,100.700 142.294 C 100.370 142.522,99.830 142.839,99.500 143.000 C 99.170 143.161,98.630 143.486,98.300 143.723 C 97.970 143.960,97.475 144.219,97.200 144.300 C 96.925 144.380,96.520 144.604,96.300 144.798 C 96.080 144.992,95.540 145.314,95.100 145.515 C 94.660 145.715,94.255 145.943,94.200 146.020 C 94.145 146.097,93.605 146.418,92.999 146.732 C 92.393 147.046,91.628 147.482,91.298 147.702 C 90.289 148.372,89.940 148.573,88.854 149.109 C 88.279 149.393,87.759 149.704,87.700 149.800 C 87.641 149.896,87.121 150.208,86.546 150.494 C 85.971 150.779,85.140 151.236,84.700 151.510 C 84.260 151.783,83.720 152.095,83.500 152.203 C 83.054 152.422,82.587 152.708,81.709 153.300 C 81.383 153.520,80.707 153.897,80.208 154.138 L 79.300 154.577 239.650 154.588 L 400.000 154.600 400.000 145.000 L 400.000 135.400 256.750 135.397 C 177.963 135.396,113.308 135.343,113.073 135.280 C 112.837 135.217,112.581 135.269,112.503 135.395 M34.000 181.021 C 33.615 181.354,32.895 181.810,32.400 182.035 C 31.905 182.259,31.320 182.603,31.100 182.799 C 30.880 182.994,30.475 183.220,30.200 183.300 C 29.925 183.381,29.430 183.640,29.100 183.877 C 28.770 184.114,28.230 184.441,27.900 184.604 C 27.570 184.766,27.255 184.958,27.200 185.030 C 27.145 185.102,26.605 185.418,25.999 185.732 C 25.393 186.046,24.628 186.493,24.299 186.725 C 23.970 186.958,23.475 187.217,23.200 187.301 C 22.925 187.386,22.446 187.667,22.135 187.927 C 21.824 188.187,21.452 188.400,21.309 188.400 C 21.166 188.400,20.939 188.533,20.804 188.695 C 20.669 188.857,20.096 189.220,19.530 189.502 C 18.963 189.783,18.208 190.190,17.850 190.407 C 17.493 190.623,16.908 190.977,16.550 191.193 C 16.193 191.410,15.437 191.817,14.870 192.098 C 14.304 192.380,13.731 192.743,13.596 192.905 C 13.461 193.067,13.234 193.200,13.091 193.200 C 12.948 193.200,12.576 193.413,12.265 193.673 C 11.954 193.933,11.475 194.213,11.200 194.296 C 10.925 194.379,10.430 194.640,10.100 194.877 C 9.770 195.114,9.230 195.437,8.900 195.594 C 8.570 195.751,8.030 196.069,7.700 196.301 C 7.370 196.533,6.740 196.887,6.300 197.086 C 5.860 197.286,5.320 197.608,5.100 197.802 C 4.880 197.996,4.475 198.222,4.200 198.304 C 3.925 198.387,3.446 198.667,3.135 198.927 C 2.824 199.187,2.464 199.403,2.335 199.406 C 2.206 199.410,1.925 199.545,1.712 199.706 C 1.370 199.965,25.348 200.000,200.662 200.000 L 400.000 200.000 400.000 190.200 L 400.000 180.400 217.350 180.408 L 34.700 180.416 34.000 181.021 " stroke="none" fill="#042c8c" fill-rule="evenodd"></path></g></svg>